<?xml version="1.0" encoding="UTF-8" standalone="no"?>
<!-- Created with Inkscape (http://www.inkscape.org/) -->

<svg
   width="39.6875mm"
   height="39.6875mm"
   viewBox="0 0 39.6875 39.6875"
   version="1.1"
   id="svg1"
   xml:space="preserve"
   inkscape:version="1.4.2 (f4327f4, 2025-05-13)"
   sodipodi:docname="favicon.svg"
   xmlns:inkscape="http://www.inkscape.org/namespaces/inkscape"
   xmlns:sodipodi="http://sodipodi.sourceforge.net/DTD/sodipodi-0.dtd"
   xmlns:xlink="http://www.w3.org/1999/xlink"
   xmlns="http://www.w3.org/2000/svg"
   xmlns:svg="http://www.w3.org/2000/svg"><sodipodi:namedview
     id="namedview1"
     pagecolor="#ffffff"
     bordercolor="#000000"
     borderopacity="0.25"
     inkscape:showpageshadow="2"
     inkscape:pageopacity="0.0"
     inkscape:pagecheckerboard="0"
     inkscape:deskcolor="#d1d1d1"
     inkscape:document-units="px"
     inkscape:zoom="1.7638889"
     inkscape:cx="92.125984"
     inkscape:cy="66.614173"
     inkscape:window-width="1366"
     inkscape:window-height="697"
     inkscape:window-x="-8"
     inkscape:window-y="-8"
     inkscape:window-maximized="1"
     inkscape:current-layer="layer1"
     showguides="false" /><defs
     id="defs1"><linearGradient
       id="linearGradient35"
       inkscape:collect="always"><stop
         style="stop-color:#0d8bbe;stop-opacity:1"
         offset="0"
         id="stop35" /><stop
         style="stop-color:#0ecdf1;stop-opacity:1"
         offset="0.34641656"
         id="stop38" /><stop
         style="stop-color:#11c9ef;stop-opacity:1"
         offset="0.65290809"
         id="stop37" /><stop
         style="stop-color:#379dba;stop-opacity:1"
         offset="1"
         id="stop36" /></linearGradient><linearGradient
       id="linearGradient21"
       inkscape:collect="always"><stop
         style="stop-color:#aaabaa;stop-opacity:1"
         offset="0"
         id="stop21" /><stop
         style="stop-color:#dbdbdb;stop-opacity:1"
         offset="0.44115096"
         id="stop23" /><stop
         style="stop-color:#cccccc;stop-opacity:1"
         offset="0.65388238"
         id="stop24" /><stop
         style="stop-color:#7b7a7b;stop-opacity:1"
         offset="1"
         id="stop22" /></linearGradient><linearGradient
       inkscape:collect="always"
       xlink:href="#linearGradient21"
       id="linearGradient22"
       x1="-71.70063"
       y1="-216.37468"
       x2="-143.82552"
       y2="-148.91669"
       gradientUnits="userSpaceOnUse"
       gradientTransform="matrix(0.22827419,0,0,0.22827419,68.098148,81.013574)" /><linearGradient
       inkscape:collect="always"
       xlink:href="#linearGradient21"
       id="linearGradient31"
       x1="-111.10262"
       y1="-199.16251"
       x2="-84.087135"
       y2="-180.9688"
       gradientUnits="userSpaceOnUse"
       gradientTransform="matrix(0.22827419,0,0,0.22827419,68.098148,81.013574)" /><linearGradient
       inkscape:collect="always"
       xlink:href="#linearGradient21"
       id="linearGradient32"
       x1="-84.087135"
       y1="-180.9688"
       x2="-54.989159"
       y2="-166.11955"
       gradientUnits="userSpaceOnUse"
       gradientTransform="matrix(0.22827419,0,0,0.22827419,68.098148,81.013574)" /><linearGradient
       inkscape:collect="always"
       xlink:href="#linearGradient21"
       id="linearGradient34"
       x1="-128.34749"
       y1="-146.26317"
       x2="-74.451042"
       y2="-146.26317"
       gradientUnits="userSpaceOnUse"
       gradientTransform="matrix(0.22827419,0,0,0.22827419,68.098148,81.013574)" /><linearGradient
       inkscape:collect="always"
       xlink:href="#linearGradient35"
       id="linearGradient36"
       x1="-142.12846"
       y1="-141.70419"
       x2="-69.155045"
       y2="-207.04086"
       gradientUnits="userSpaceOnUse"
       gradientTransform="matrix(0.22827419,0,0,0.22827419,68.098148,81.013574)" /><linearGradient
       inkscape:collect="always"
       xlink:href="#linearGradient35"
       id="linearGradient40"
       x1="-130.04648"
       y1="-196.28551"
       x2="-111.67433"
       y2="-196.28551"
       gradientUnits="userSpaceOnUse"
       gradientTransform="matrix(0.22827419,0,0,0.22827419,68.098148,81.013574)" /><linearGradient
       inkscape:collect="always"
       xlink:href="#linearGradient35"
       id="linearGradient42"
       x1="-137.18542"
       y1="-144.89839"
       x2="-65.300926"
       y2="-144.89839"
       gradientUnits="userSpaceOnUse"
       gradientTransform="matrix(0.22827419,0,0,0.22827419,68.098148,81.013574)" /></defs><g
     inkscape:label="Camada 1"
     inkscape:groupmode="layer"
     id="layer1"
     transform="translate(-24.820002,-23.911423)"><g
       id="g1"
       transform="matrix(1.4892995,0,0,1.4892995,-21.314258,-21.409316)"
       style="stroke-width:0.671457"><path
         style="fill:url(#linearGradient22);fill-opacity:1;stroke:none;stroke-width:0.671456;stroke-linecap:square;stroke-dasharray:none;paint-order:stroke fill markers"
         d="m 49.6485,33.703064 -1.888546,-0.58109 4.164488,-1.452728 C 48.345673,42.995266 38.107384,37.15733 35.411767,47.310286 35.312566,36.05046 46.498173,39.626464 49.6485,33.703064 Z"
         id="path1"
         sodipodi:nodetypes="ccccc" /><path
         style="fill:url(#linearGradient36);fill-opacity:1;stroke:none;stroke-width:0.671456;stroke-linecap:square;stroke-dasharray:none;paint-order:stroke fill markers"
         d="M 35.460191,49.925196 C 37.337541,39.229763 49.526376,44.053746 51.876018,33.218822 47.922154,43.255024 36.075607,38.835474 35.460191,49.925196 Z"
         id="path2"
         sodipodi:nodetypes="ccc" /><path
         style="fill:url(#linearGradient31);stroke:none;stroke-width:0.671456;stroke-linecap:square;stroke-dasharray:none;paint-order:stroke fill markers"
         d="m 42.736287,35.438633 0.890269,-1.472369 c 1.243426,0.337307 2.082397,1.038623 2.876255,1.780539 -0.909367,0.60668 -1.898492,1.053842 -2.944737,1.386766 -0.06767,-0.628444 -0.171514,-1.245756 -0.821787,-1.694936 z"
         id="path3"
         sodipodi:nodetypes="ccccc" /><path
         id="path4"
         style="fill:url(#linearGradient40);stroke:none;stroke-width:0.671456;stroke-linecap:square;stroke-dasharray:none;paint-order:stroke fill markers"
         d="m 39.142283,35.244819 a 0.58209918,0.58209918 0 0 0 -0.711213,0.414701 0.58209918,0.58209918 0 0 0 0.414731,0.711099 l 3.028904,0.797673 6.85e-4,2.1e-4 a 0.58209918,0.58209918 0 0 0 0.711183,-0.414587 0.58209918,0.58209918 0 0 0 -0.414701,-0.711214 z" /><path
         id="path5"
         style="baseline-shift:baseline;display:inline;overflow:visible;vector-effect:none;fill:url(#linearGradient34);stroke:none;stroke-width:0.671456;stroke-linecap:square;paint-order:stroke fill markers;enable-background:accumulate;stop-color:#000000"
         d="m 45.731998,41.498717 a 10.407997,10.407997 0 0 0 -5.602815,2.287437 c -0.831981,1.049272 -1.329455,2.375193 -1.329455,3.81472 0,3.391143 2.760675,6.151348 6.151821,6.151348 3.391143,0 6.151348,-2.760205 6.151348,-6.151348 0,-3.126806 -2.346716,-5.717314 -5.370899,-6.102157 z m -0.780449,1.00694 c 2.820193,0 5.094628,2.275022 5.094628,5.095217 0,2.820193 -2.274435,5.095098 -5.094628,5.095098 -2.820195,0 -5.095217,-2.274905 -5.095217,-5.095098 0,-2.820195 2.275022,-5.095217 5.095217,-5.095217 z" /><path
         id="path16"
         style="fill:url(#linearGradient32);stroke:none;stroke-width:0.671456;stroke-linecap:square;stroke-dasharray:none;paint-order:stroke fill markers"
         d="m 49.979174,38.487805 a 10.407997,10.407997 0 0 1 -1.07595,1.022984 9.0036936,9.0036936 0 0 1 2.082182,1.407545 h 1.945225 a 10.407997,10.407997 0 0 0 -2.951457,-2.430529 z" /><path
         id="path20"
         style="baseline-shift:baseline;display:inline;overflow:visible;vector-effect:none;fill:url(#linearGradient42);stroke:none;stroke-width:0.671456;stroke-linecap:square;paint-order:stroke fill markers;enable-background:accumulate;stop-color:#000000"
         d="m 48.212137,40.033014 a 10.407997,10.407997 0 0 1 -1.158169,0.695161 c 0.7439,0.226592 1.436205,0.570386 2.055522,1.010008 1.832216,1.300599 3.025539,3.439743 3.025539,5.862691 0,3.973756 -3.209777,7.183887 -7.183533,7.183887 -3.973756,0 -7.184005,-3.210131 -7.184005,-7.183887 0,-0.434168 0.03837,-0.859258 0.111829,-1.272005 a 10.407997,10.407997 0 0 0 -1.097063,2.359396 c 0.533648,4.032349 3.993107,7.152745 8.169239,7.152745 4.544704,0 8.240137,-3.695432 8.240137,-8.240136 0,-1.857944 -0.617673,-3.573927 -1.658455,-4.953543 -0.856556,-1.135413 -1.999675,-2.043013 -3.321041,-2.614317 z" /></g></g></svg>
