<?xml version="1.0" encoding="UTF-8" standalone="no"?>
<!-- Created with Inkscape (http://www.inkscape.org/) -->

<svg
   width="39.6875mm"
   height="39.6875mm"
   viewBox="0 0 39.6875 39.6875"
   version="1.1"
   id="svg1"
   xml:space="preserve"
   inkscape:version="1.4.2 (f4327f4, 2025-05-13)"
   sodipodi:docname="Logo em Processo.svg"
   xmlns:inkscape="http://www.inkscape.org/namespaces/inkscape"
   xmlns:sodipodi="http://sodipodi.sourceforge.net/DTD/sodipodi-0.dtd"
   xmlns:xlink="http://www.w3.org/1999/xlink"
   xmlns="http://www.w3.org/2000/svg"
   xmlns:svg="http://www.w3.org/2000/svg"><sodipodi:namedview
     id="namedview1"
     pagecolor="#ffffff"
     bordercolor="#000000"
     borderopacity="0.25"
     inkscape:showpageshadow="2"
     inkscape:pageopacity="0.0"
     inkscape:pagecheckerboard="0"
     inkscape:deskcolor="#d1d1d1"
     inkscape:document-units="px"
     inkscape:zoom="2.4945156"
     inkscape:cx="53.316965"
     inkscape:cy="53.517405"
     inkscape:window-width="1366"
     inkscape:window-height="697"
     inkscape:window-x="-8"
     inkscape:window-y="-8"
     inkscape:window-maximized="1"
     inkscape:current-layer="layer1"
     showguides="false" /><defs
     id="defs1"><linearGradient
       id="linearGradient61"
       inkscape:collect="always"><stop
         style="stop-color:#33373a;stop-opacity:1"
         offset="0"
         id="stop59" /><stop
         style="stop-color:#626669;stop-opacity:1"
         offset="0.55324411"
         id="stop60" /><stop
         style="stop-color:#2d3134;stop-opacity:1"
         offset="1"
         id="stop61" /></linearGradient><linearGradient
       id="linearGradient50"
       inkscape:collect="always"><stop
         style="stop-color:#33373a;stop-opacity:1"
         offset="0"
         id="stop50" /><stop
         style="stop-color:#626669;stop-opacity:1"
         offset="0.55324411"
         id="stop52" /><stop
         style="stop-color:#2d3134;stop-opacity:1"
         offset="1"
         id="stop51" /></linearGradient><linearGradient
       id="linearGradient35"
       inkscape:collect="always"><stop
         style="stop-color:#0d8bbe;stop-opacity:1"
         offset="0"
         id="stop35" /><stop
         style="stop-color:#0ecdf1;stop-opacity:1"
         offset="0.34641656"
         id="stop38" /><stop
         style="stop-color:#11c9ef;stop-opacity:1"
         offset="0.65290809"
         id="stop37" /><stop
         style="stop-color:#379dba;stop-opacity:1"
         offset="1"
         id="stop36" /></linearGradient><linearGradient
       id="linearGradient21"
       inkscape:collect="always"><stop
         style="stop-color:#aaabaa;stop-opacity:1"
         offset="0"
         id="stop21" /><stop
         style="stop-color:#dbdbdb;stop-opacity:1"
         offset="0.44115096"
         id="stop23" /><stop
         style="stop-color:#cccccc;stop-opacity:1"
         offset="0.65388238"
         id="stop24" /><stop
         style="stop-color:#7b7a7b;stop-opacity:1"
         offset="1"
         id="stop22" /></linearGradient><linearGradient
       inkscape:collect="always"
       xlink:href="#linearGradient21"
       id="linearGradient22"
       x1="-71.70063"
       y1="-216.37468"
       x2="-143.82552"
       y2="-148.91669"
       gradientUnits="userSpaceOnUse"
       gradientTransform="translate(-95.88368,11.030866)" /><linearGradient
       inkscape:collect="always"
       xlink:href="#linearGradient21"
       id="linearGradient31"
       x1="-111.10262"
       y1="-199.16251"
       x2="-84.087135"
       y2="-180.9688"
       gradientUnits="userSpaceOnUse"
       gradientTransform="translate(-95.88368,11.030866)" /><linearGradient
       inkscape:collect="always"
       xlink:href="#linearGradient21"
       id="linearGradient32"
       x1="-84.087135"
       y1="-180.9688"
       x2="-54.989159"
       y2="-166.11955"
       gradientUnits="userSpaceOnUse"
       gradientTransform="translate(-95.88368,11.030866)" /><linearGradient
       inkscape:collect="always"
       xlink:href="#linearGradient21"
       id="linearGradient34"
       x1="-128.34749"
       y1="-146.26317"
       x2="-74.451042"
       y2="-146.26317"
       gradientUnits="userSpaceOnUse"
       gradientTransform="translate(-95.88368,11.030866)" /><linearGradient
       inkscape:collect="always"
       xlink:href="#linearGradient35"
       id="linearGradient36"
       x1="-142.12846"
       y1="-141.70419"
       x2="-69.155045"
       y2="-207.04086"
       gradientUnits="userSpaceOnUse"
       gradientTransform="translate(-95.88368,11.030866)" /><linearGradient
       inkscape:collect="always"
       xlink:href="#linearGradient35"
       id="linearGradient40"
       x1="-130.04648"
       y1="-196.28551"
       x2="-111.67433"
       y2="-196.28551"
       gradientUnits="userSpaceOnUse"
       gradientTransform="translate(-95.88368,11.030866)" /><linearGradient
       inkscape:collect="always"
       xlink:href="#linearGradient35"
       id="linearGradient42"
       x1="-137.18542"
       y1="-144.89839"
       x2="-65.300926"
       y2="-144.89839"
       gradientUnits="userSpaceOnUse"
       gradientTransform="translate(-95.88368,11.030866)" /><linearGradient
       inkscape:collect="always"
       xlink:href="#linearGradient50"
       id="linearGradient51"
       x1="-441.66324"
       y1="-316.02405"
       x2="-316.92102"
       y2="-244.00414"
       gradientUnits="userSpaceOnUse" /><linearGradient
       inkscape:collect="always"
       xlink:href="#linearGradient50"
       id="linearGradient54"
       x1="-441.66315"
       y1="-332.18723"
       x2="-379.2919"
       y2="-332.18723"
       gradientUnits="userSpaceOnUse" /><linearGradient
       inkscape:collect="always"
       xlink:href="#linearGradient50"
       id="linearGradient55"
       x1="-379.2919"
       y1="-332.18723"
       x2="-316.92111"
       y2="-332.18723"
       gradientUnits="userSpaceOnUse" /><linearGradient
       inkscape:collect="always"
       xlink:href="#linearGradient61"
       id="linearGradient56"
       x1="-320.11133"
       y1="-314.18231"
       x2="-316.92111"
       y2="-244.00432"
       gradientUnits="userSpaceOnUse" /><linearGradient
       inkscape:collect="always"
       xlink:href="#linearGradient50"
       id="linearGradient57"
       x1="-379.2919"
       y1="-227.841"
       x2="-316.92111"
       y2="-227.841"
       gradientUnits="userSpaceOnUse" /><linearGradient
       inkscape:collect="always"
       xlink:href="#linearGradient50"
       id="linearGradient58"
       x1="-441.66315"
       y1="-227.841"
       x2="-379.2919"
       y2="-227.841"
       gradientUnits="userSpaceOnUse" /><linearGradient
       inkscape:collect="always"
       xlink:href="#linearGradient50"
       id="linearGradient59"
       x1="-438.47296"
       y1="-314.18231"
       x2="-435.28275"
       y2="-247.68806"
       gradientUnits="userSpaceOnUse" /></defs><g
     inkscape:label="Camada 1"
     inkscape:groupmode="layer"
     id="layer1"
     transform="translate(-24.820002,-23.911423)"><rect
       style="opacity:1;fill:#1a1a1a;fill-opacity:1;stroke:none;stroke-width:4.62801;stroke-linecap:square;stroke-dasharray:none;stroke-opacity:1;paint-order:stroke fill markers"
       id="rect61"
       width="39.6875"
       height="39.6875"
       x="24.820002"
       y="23.911423" /><g
       id="g61"
       transform="matrix(0.22827419,0,0,0.22827419,88.45828,78.717448)"
       style="stroke-width:4.38069"><path
         id="path43"
         style="opacity:1;fill:url(#linearGradient56);fill-opacity:1;stroke:none;stroke-width:17.4792;stroke-linecap:square;stroke-dasharray:none;paint-order:stroke fill markers"
         d="m -323.30153,-247.68794 6.38041,3.68362 v -72.02003 l -6.38041,3.68407 z"
         transform="matrix(1.1598921,0,0,1.1598921,248.08739,171.62703)" /><path
         id="path50"
         style="opacity:1;fill:url(#linearGradient57);fill-opacity:1;stroke:none;stroke-width:17.4792;stroke-linecap:square;stroke-dasharray:none;paint-order:stroke fill markers"
         d="m -379.29191,-215.36177 v 7.36769 l 62.37079,-36.01024 -6.38041,-3.68362 z"
         transform="matrix(1.1598921,0,0,1.1598921,248.08739,171.62703)" /><path
         id="path49"
         style="opacity:1;fill:url(#linearGradient59);fill-opacity:1;stroke:none;stroke-width:17.4792;stroke-linecap:square;stroke-dasharray:none;paint-order:stroke fill markers"
         d="m -435.28275,-247.68794 v -64.65234 l -6.3804,-3.68407 v 72.02003 z"
         transform="matrix(1.1598921,0,0,1.1598921,248.08739,171.62703)" /><path
         id="path48"
         style="opacity:1;fill:url(#linearGradient58);fill-opacity:1;stroke:none;stroke-width:17.4792;stroke-linecap:square;stroke-dasharray:none;paint-order:stroke fill markers"
         d="m -435.28275,-247.68794 -6.3804,3.68362 62.37124,36.01024 v -7.36769 z"
         transform="matrix(1.1598921,0,0,1.1598921,248.08739,171.62703)" /><path
         id="path47"
         style="opacity:1;fill:url(#linearGradient54);fill-opacity:1;stroke:none;stroke-width:17.4792;stroke-linecap:square;stroke-dasharray:none;paint-order:stroke fill markers"
         d="m -379.29191,-352.03415 -62.37124,36.0098 6.3804,3.68407 55.99084,-32.32662 z"
         transform="matrix(1.1598921,0,0,1.1598921,248.08739,171.62703)" /><path
         id="path46"
         style="opacity:1;fill:url(#linearGradient55);fill-opacity:1;stroke:none;stroke-width:17.4792;stroke-linecap:square;stroke-dasharray:none;paint-order:stroke fill markers"
         d="m -379.29191,-352.03415 v 7.36725 l 55.99038,32.32662 6.38041,-3.68407 z"
         transform="matrix(1.1598921,0,0,1.1598921,248.08739,171.62703)" /><path
         sodipodi:type="star"
         style="opacity:1;fill:url(#linearGradient51);fill-opacity:1;stroke:none;stroke-width:19.471;stroke-linecap:square;stroke-dasharray:none;paint-order:stroke fill markers"
         id="path42"
         inkscape:flatsided="true"
         sodipodi:sides="6"
         sodipodi:cx="-379.29208"
         sodipodi:cy="-280.01428"
         sodipodi:r1="72.019997"
         sodipodi:r2="62.371147"
         sodipodi:arg1="0.52359878"
         sodipodi:arg2="1.0471976"
         inkscape:rounded="0"
         inkscape:randomized="0"
         d="m -316.92094,-244.00428 -62.37114,36.00999 -62.37115,-36.00999 0,-72.02 62.37115,-36.01 62.37114,36.01 z"
         transform="matrix(1.0412364,0,0,1.0412364,203.08221,138.40174)" /><g
         id="g42"
         transform="translate(6.6921124,-0.97223617)"
         style="stroke:none;stroke-width:4.38069"><path
           style="fill:url(#linearGradient22);fill-opacity:1;stroke:none;stroke-width:4.38069;stroke-linecap:square;stroke-dasharray:none;paint-order:stroke fill markers"
           d="m -176.70599,-196.22213 -8.27315,-2.54558 18.24336,-6.36396 c -15.6775,49.61586 -60.52834,24.04163 -72.33702,68.51865 -0.43457,-49.32588 48.56618,-33.66049 62.36681,-59.60911 z"
           id="path1"
           sodipodi:nodetypes="ccccc" /><path
           style="fill:url(#linearGradient36);fill-opacity:1;stroke:none;stroke-width:4.38069;stroke-linecap:square;stroke-dasharray:none;paint-order:stroke fill markers"
           d="m -238.86067,-125.15789 c 8.2241,-46.85345 61.61969,-25.72104 71.91276,-73.18556 -17.32068,43.96556 -69.21681,24.60485 -71.91276,73.18556 z"
           id="path2"
           sodipodi:nodetypes="ccc" /><path
           style="fill:url(#linearGradient31);stroke:none;stroke-width:4.38069;stroke-linecap:square;stroke-dasharray:none;paint-order:stroke fill markers"
           d="m -206.9863,-188.61913 3.9,-6.45 c 5.44707,1.47764 9.12235,4.54989 12.6,7.8 -3.98366,2.65768 -8.31672,4.61656 -12.9,6.075 -0.29644,-2.75302 -0.75135,-5.45728 -3.6,-7.425 z"
           id="path3"
           sodipodi:nodetypes="ccccc" /><path
           id="path4"
           style="fill:url(#linearGradient40);stroke:none;stroke-width:4.38069;stroke-linecap:square;stroke-dasharray:none;paint-order:stroke fill markers"
           d="m -222.73054,-189.46817 a 2.55,2.55 0 0 0 -3.11561,1.81668 2.55,2.55 0 0 0 1.81681,3.11511 l 13.26871,3.49436 0.003,9.2e-4 a 2.55,2.55 0 0 0 3.11548,-1.81618 2.55,2.55 0 0 0 -1.81668,-3.11561 z" /><path
           id="path5"
           style="baseline-shift:baseline;display:inline;overflow:visible;opacity:1;vector-effect:none;fill:url(#linearGradient34);stroke:none;stroke-width:4.38069;stroke-linecap:square;paint-order:stroke fill markers;enable-background:accumulate;stop-color:#000000;stop-opacity:1"
           d="m -193.863,-162.07174 a 45.59428,45.59428 0 0 0 -24.54423,10.02057 c -3.64466,4.59654 -5.82394,10.405 -5.82394,16.71113 0,14.85557 12.09368,26.94719 26.94926,26.94719 14.85557,0 26.94719,-12.09162 26.94719,-26.94719 0,-13.69759 -10.28025,-25.04582 -23.52828,-26.7317 z m -3.41891,4.4111 c 12.35441,0 22.31802,9.96618 22.31802,22.3206 0,12.35441 -9.96361,22.32008 -22.31802,22.32008 -12.35442,0 -22.3206,-9.96567 -22.3206,-22.32008 0,-12.35442 9.96618,-22.3206 22.3206,-22.3206 z" /><path
           id="path16"
           style="opacity:1;fill:url(#linearGradient32);stroke:none;stroke-width:4.38069;stroke-linecap:square;stroke-dasharray:none;paint-order:stroke fill markers"
           d="m -175.25741,-175.26163 a 45.59428,45.59428 0 0 1 -4.71341,4.48138 39.442451,39.442451 0 0 1 9.12141,6.16603 h 8.52144 a 45.59428,45.59428 0 0 0 -12.92944,-10.64741 z" /><path
           id="path20"
           style="baseline-shift:baseline;display:inline;overflow:visible;opacity:1;vector-effect:none;fill:url(#linearGradient42);stroke:none;stroke-width:4.38069;stroke-linecap:square;paint-order:stroke fill markers;enable-background:accumulate;stop-color:#000000;stop-opacity:1"
           d="m -182.99826,-168.49254 a 45.59428,45.59428 0 0 1 -5.07359,3.04529 c 3.2588,0.99263 6.29158,2.49869 9.00462,4.42454 8.02638,5.69753 13.25397,15.06847 13.25397,25.68267 0,17.40782 -14.06106,31.47043 -31.46888,31.47043 -17.40782,0 -31.47095,-14.06261 -31.47095,-31.47043 0,-1.90196 0.1681,-3.76415 0.48989,-5.57227 a 45.59428,45.59428 0 0 0 -4.8059,10.3358 c 2.33775,17.6645 17.49259,31.334006 35.78696,31.334006 19.90897,0 36.09754,-16.188566 36.09754,-36.097536 0,-8.13909 -2.70584,-15.65629 -7.26519,-21.69997 -3.75231,-4.9739 -8.75997,-8.94982 -14.54847,-11.45253 z" /></g></g></g></svg>
